<!-- Mantle README placeholder banner artwork. Replaceable repository-owned SVG with no external assets. -->
<svg xmlns="http://www.w3.org/2000/svg" viewBox="0 0 1600 420" role="img" aria-labelledby="title desc">
  <title id="title">Mantle placeholder project banner</title>
  <desc id="desc">A layered blue banner with terminal-inspired framing and the Mantle wordmark.</desc>
  <defs>
    <linearGradient id="bg" x1="0" x2="1" y1="0" y2="1">
      <stop offset="0%" stop-color="#0f172a"/>
      <stop offset="100%" stop-color="#1e293b"/>
    </linearGradient>
    <linearGradient id="accent" x1="0" x2="1" y1="0" y2="0">
      <stop offset="0%" stop-color="#38bdf8"/>
      <stop offset="100%" stop-color="#22c55e"/>
    </linearGradient>
  </defs>
  <rect width="1600" height="420" rx="28" fill="url(#bg)"/>
  <rect x="54" y="54" width="1492" height="312" rx="24" fill="#111827" opacity="0.88" stroke="#334155"/>
  <rect x="92" y="92" width="564" height="236" rx="18" fill="#020617" stroke="#1e293b"/>
  <circle cx="130" cy="124" r="8" fill="#f87171"/>
  <circle cx="158" cy="124" r="8" fill="#fbbf24"/>
  <circle cx="186" cy="124" r="8" fill="#34d399"/>
  <path d="M146 184l52 42-52 42" fill="none" stroke="#38bdf8" stroke-linecap="round" stroke-linejoin="round" stroke-width="16"/>
  <path d="M236 268h108" fill="none" stroke="#e2e8f0" stroke-linecap="round" stroke-width="16"/>
  <rect x="760" y="118" width="344" height="28" rx="14" fill="#0f172a" stroke="#334155"/>
  <rect x="760" y="176" width="438" height="28" rx="14" fill="#0f172a" stroke="#334155"/>
  <rect x="760" y="234" width="294" height="28" rx="14" fill="#0f172a" stroke="#334155"/>
  <g opacity="0.88">
    <path d="M1180 96l120 0 86 86 0 142-120 0-86-86z" fill="none" stroke="url(#accent)" stroke-width="12"/>
    <path d="M1118 136l120 0 86 86 0 142-120 0-86-86z" fill="none" stroke="#38bdf8" stroke-opacity="0.35" stroke-width="12"/>
  </g>
  <text x="760" y="165" fill="#f8fafc" font-family="system-ui, -apple-system, BlinkMacSystemFont, 'Segoe UI', sans-serif" font-size="72" font-weight="700" letter-spacing="1">Mantle</text>
  <text x="760" y="218" fill="#cbd5e1" font-family="system-ui, -apple-system, BlinkMacSystemFont, 'Segoe UI', sans-serif" font-size="28">Portable shell runtime, modular CLI, and user-owned tooling surface.</text>
</svg>
